<svg height="512" viewBox="0 0 42 60" width="512" xmlns="http://www.w3.org/2000/svg"><g id="Page-1" fill="none" fill-rule="evenodd"><g id="005---Measurement-Tool" fill-rule="nonzero"><path id="Shape" d="m41 5v4c0 .55228475-.4477153 1-1 1h-21c-.5522847 0-1 .4477153-1 1v46c-.0032948 1.1032019-.8967981 1.9967052-2 2h-8c-1.10320187-.0032948-1.9967052-.8967981-2-2v-54c.0032948-1.10320187.89679813-1.9967052 2-2h29c2.209139 0 4 1.790861 4 4z" fill="#7f8e94"/><path id="Shape" d="m15 11v46c-.0032948 1.1032019-.8967981 1.9967052-2 2h3c1.1032019-.0032948 1.9967052-.8967981 2-2v-46c0-.5522847.4477153-1 1-1h-3c-.5522847 0-1 .4477153-1 1z" fill="#545c60"/><path id="Shape" d="m37 1h-3c2.209139 0 4 1.790861 4 4v4c0 .55228475-.4477153 1-1 1h3c.5522847 0 1-.44771525 1-1v-4c0-2.209139-1.790861-4-4-4z" fill="#545c60"/><path id="Shape" d="m18 24h22c.5522847 0 1 .4477153 1 1v4c0 2.209139-1.790861 4-4 4h-15v7c-.0032948 1.1032019-.8967981 1.9967052-2 2h-2z" fill="#607d8b"/><path id="Shape" d="m40 24h-3c.5522847 0 1 .4477153 1 1v4c0 2.209139-1.790861 4-4 4h3c2.209139 0 4-1.790861 4-4v-4c0-.5522847-.4477153-1-1-1z" fill="#37474f"/><path id="Shape" d="m2 27h4v4h-4c-.55228475 0-1-.4477153-1-1v-2c0-.5522847.44771525-1 1-1z" fill="#607d8b"/><path id="Shape" d="m2 4h4v4h-4c-.55228475 0-1-.44771525-1-1v-2c0-.55228475.44771525-1 1-1z" fill="#607d8b"/><path id="Shape" d="m39.73 18-2.88 5c-.356899.6181681-1.0162016.9992679-1.73 1h-6.237c-.7137984-.0007321-1.373101-.3818319-1.73-1l-2.89-5c-.3509921-.6204684-.3509921-1.3795316 0-2l2.89-5c.356899-.6181681 1.0162016-.9992679 1.73-1h6.237c.7137984.0007321 1.373101.3818319 1.73 1l2.88 5c.3599689.6180751.3599689 1.3819249 0 2z" fill="#ffdc00"/><path id="Shape" d="m39.73 16-2.88-5c-.356899-.6181681-1.0162016-.9992679-1.73-1h-3c.7137984.0007321 1.373101.3818319 1.73 1l2.88 5c.3599689.6180751.3599689 1.3819249 0 2l-2.88 5c-.356899.6181681-1.0162016.9992679-1.73 1h3c.7137984-.0007321 1.373101-.3818319 1.73-1l2.88-5c.3599689-.6180751.3599689-1.3819249 0-2z" fill="#fec108"/><path id="Shape" d="m29.749 19.5-1.155-2c-.1786328-.3094011-.1786328-.6905989 0-1l1.155-2c.1786283-.3093932.5087435-.4999909.866-.5h2.769c.3572565.0000091.6873717.1906068.866.5l1.153 2c.1786328.3094011.1786328.6905989 0 1l-1.153 2c-.1786283.3093932-.5087435.4999909-.866.5h-2.769c-.3572565-.0000091-.6873717-.1906068-.866-.5z" fill="#ff9801"/><path id="Shape" d="m35.4 16.5-1.153-2c-.1786283-.3093932-.5087435-.4999909-.866-.5h-2.766c-.0385704.0029744-.0769571.0079813-.115.015.3130025.0336787.5913843.2140701.75.486l1.153 2c.1786328.3094011.1786328.6905989 0 1l-1.153 2c-.1586157.2719299-.4369975.4523213-.75.486.0380429.0070187.0764296.0120256.115.015h2.769c.3572565-.0000091.6873717-.1906068.866-.5l1.153-2c.1784767-.3104458.1773324-.6926285-.003-1.002z" fill="#f57c00"/><g fill="#000"><path id="Shape" d="m2 32h3v25c0 1.6568542 1.34314575 3 3 3h8c1.6568542 0 3-1.3431458 3-3v-14h1c1.6568542 0 3-1.3431458 3-3v-6h14c2.7600532-.0033061 4.9966939-2.2399468 5-5v-4c0-1.1045695-.8954305-2-2-2h-2l2.6-4.5c.5358984-.9282032.5358984-2.0717968 0-3l-2.6-4.5h2c1.1045695 0 2-.8954305 2-2v-4c-.0033061-2.76005315-2.2399468-4.99669388-5-5h-29c-1.65685425 0-3 1.34314575-3 3h-3c-1.1045695 0-2 .8954305-2 2v2c0 1.1045695.8954305 2 2 2h3v17h-3c-1.1045695 0-2 .8954305-2 2v2c0 1.1045695.8954305 2 2 2zm21.4-13.5 2.6 4.5h-7v-12h7l-2.6 4.508c-.5214141.9291834-.5214141 2.0628166 0 2.992zm16.6 10.5c0 1.6568542-1.3431458 3-3 3h-14v-3c0-.5522847-.4477153-1-1-1s-1 .4477153-1 1v11c0 .5522847-.4477153 1-1 1h-1v-16h21zm-4.017-17.5 2.882 5c.1817857.3085488.1817857.6914512 0 1l-2.879 5c-.1784495.309084-.5081008.4996339-.865.5h-6.239c-.3565418-.0007226-.6857295-.1912247-.864-.5l-2.885-4.992c-.1750787-.3127358-.1769676-.6935427-.005-1.008l2.889-5c.179346-.3081865.5084311-.4984091.865-.5h6.238c.3561842.0010785.6849087.191533.863.5zm-28.983-8.5c0-.55228475.44771525-1 1-1h29c1.6568542 0 3 1.34314575 3 3v4h-21c-1.1045695 0-2 .8954305-2 2h-1c-.5522847 0-1 .4477153-1 1s.4477153 1 1 1h1v2h-2c-.5522847 0-1 .4477153-1 1s.4477153 1 1 1h2v2h-1c-.5522847 0-1 .4477153-1 1s.4477153 1 1 1h1v2h-2c-.5522847 0-1 .4477153-1 1s.4477153 1 1 1h2v2h-1c-.5522847 0-1 .4477153-1 1s.4477153 1 1 1h1v2h-2c-.5522847 0-1 .4477153-1 1s.4477153 1 1 1h2v2h-1c-.5522847 0-1 .4477153-1 1s.4477153 1 1 1h1v2h-2c-.5522847 0-1 .4477153-1 1s.4477153 1 1 1h2v2h-1c-.5522847 0-1 .4477153-1 1s.4477153 1 1 1h1v2h-2c-.5522847 0-1 .4477153-1 1s.4477153 1 1 1h2v2h-1c-.5522847 0-1 .4477153-1 1s.4477153 1 1 1h1v4c0 .5522847-.4477153 1-1 1h-8c-.55228475 0-1-.4477153-1-1zm-5 4v-2h3v2zm0 21h3v2h-3z"/><path id="Shape" d="m27.728 18 1.156 2c.3570778.6184772 1.0168443.9996247 1.731 1h2.769c.7145945-.0006899 1.3748119-.3816578 1.733-1l1.152-2c.3572656-.6188022.3572656-1.3811978 0-2l-1.153-2c-.3584878-.6180419-1.0185155-.9989003-1.733-1h-2.768c-.7141557.0003753-1.3739222.3815228-1.731 1l-1.156 2c-.3556236.6192411-.3556236 1.3807589 0 2zm2.887-3h2.769l1.152 2-1.152 2h-2.769l-1.156-2z"/></g></g></g></svg>