<?xml version="1.0" encoding="iso-8859-1"?>
<!-- Generator: Adobe Illustrator 19.0.0, SVG Export Plug-In . SVG Version: 6.00 Build 0)  -->
<svg version="1.1" id="Layer_1" xmlns="http://www.w3.org/2000/svg" xmlns:xlink="http://www.w3.org/1999/xlink" x="0px" y="0px"
	 viewBox="0 0 496 496" style="enable-background:new 0 0 496 496;" xml:space="preserve">
<path style="fill:#E56565;" d="M8,384v72c0,17.672,14.328,32,32,32h416c17.672,0,32-14.328,32-32v-72H8z"/>
<path style="fill:#FF6E6E;" d="M88,216H40c-17.672,0-32,14.328-32,32v144c0,17.672,14.328,32,32,32h416c17.672,0,32-14.328,32-32
	V248c0-17.672-14.328-32-32-32H120H88z"/>
<g>
	<rect x="40" y="216" style="fill:#E56565;" width="48" height="208"/>
	<rect x="432" y="216" style="fill:#E56565;" width="24" height="208"/>
	<rect x="368" y="216" style="fill:#E56565;" width="48" height="208"/>
</g>
<path style="fill:#684621;" d="M456,496H40c-22.056,0-40-17.944-40-40v-72h16v72c0,13.232,10.768,24,24,24h416
	c13.232,0,24-10.768,24-24v-72h16v72C496,478.056,478.056,496,456,496z"/>
<path style="fill:#E56565;" d="M88,274.792c-18.632,6.592-32,24.32-32,45.208c0,26.512,21.488,48,48,48s48-21.488,48-48
	c0-20.888-13.368-38.616-32-45.208H88z"/>
<rect x="88" y="120" style="fill:#EFE7E4;" width="32" height="200"/>
<polygon style="fill:#684621;" points="128,328 80,328 80,120 96,120 96,312 112,312 112,120 128,120 "/>
<circle style="fill:#FF6E6E;" cx="104" cy="64" r="56"/>
<g>
	<path style="fill:#684621;" d="M104,128c-35.288,0-64-28.712-64-64S68.712,0,104,0s64,28.712,64,64S139.288,128,104,128z M104,16
		c-26.472,0-48,21.528-48,48s21.528,48,48,48s48-21.528,48-48S130.472,16,104,16z"/>
	<path style="fill:#684621;" d="M75.712,92.288c-15.592-15.6-15.592-40.976,0-56.568c15.6-15.592,40.984-15.592,56.568,0
		l-11.312,11.312c-9.36-9.352-24.584-9.352-33.944,0c-9.352,9.36-9.352,24.584,0,33.944L75.712,92.288z"/>
	<path style="fill:#684621;" d="M104,376c-30.88,0-56-25.12-56-56c0-23.648,15-44.848,37.328-52.752l5.344,15.088
		C74.72,287.984,64,303.12,64,320c0,22.056,17.944,40,40,40s40-17.944,40-40c0-16.88-10.72-32.016-26.672-37.664l5.344-15.088
		C145,275.152,160,296.352,160,320C160,350.88,134.88,376,104,376z"/>
	<path style="fill:#684621;" d="M456,432H40c-22.056,0-40-17.944-40-40V248c0-22.056,17.944-40,40-40h48v16H40
		c-13.232,0-24,10.768-24,24v144c0,13.232,10.768,24,24,24h416c13.232,0,24-10.768,24-24V248c0-13.232-10.768-24-24-24H120v-16h336
		c22.056,0,40,17.944,40,40v144C496,414.056,478.056,432,456,432z"/>
</g>
<circle style="fill:#98CE59;" cx="408" cy="280" r="32"/>
<circle style="fill:#66ADDD;" cx="328" cy="360" r="32"/>
<circle style="fill:#FFCB57;" cx="248" cy="280" r="32"/>
<g>
	<path style="fill:#684621;" d="M408,320c-22.056,0-40-17.944-40-40s17.944-40,40-40s40,17.944,40,40S430.056,320,408,320z M408,256
		c-13.232,0-24,10.768-24,24s10.768,24,24,24s24-10.768,24-24S421.232,256,408,256z"/>
	<path style="fill:#684621;" d="M328,400c-22.056,0-40-17.944-40-40s17.944-40,40-40s40,17.944,40,40S350.056,400,328,400z M328,336
		c-13.232,0-24,10.768-24,24s10.768,24,24,24s24-10.768,24-24S341.232,336,328,336z"/>
	<path style="fill:#684621;" d="M248,320c-22.056,0-40-17.944-40-40s17.944-40,40-40s40,17.944,40,40S270.056,320,248,320z M248,256
		c-13.232,0-24,10.768-24,24s10.768,24,24,24s24-10.768,24-24S261.232,256,248,256z"/>
</g>
<g>
</g>
<g>
</g>
<g>
</g>
<g>
</g>
<g>
</g>
<g>
</g>
<g>
</g>
<g>
</g>
<g>
</g>
<g>
</g>
<g>
</g>
<g>
</g>
<g>
</g>
<g>
</g>
<g>
</g>
</svg>
