<svg id="Layer_1" data-name="Layer 1" xmlns="http://www.w3.org/2000/svg" xmlns:xlink="http://www.w3.org/1999/xlink" viewBox="0 0 481 399.77">
  <defs>
    <style>
      .cls-1 {
        fill: url(#linear-gradient);
      }

      .cls-2, .cls-4 {
        fill: #fff;
      }

      .cls-3 {
        fill: none;
      }

      .cls-4 {
        opacity: 0.6;
      }
    </style>
    <linearGradient id="linear-gradient" y1="154.5" x2="481" y2="154.5" gradientUnits="userSpaceOnUse">
      <stop offset="0" stop-color="#b32812"/>
      <stop offset="1" stop-color="#d60000"/>
    </linearGradient>
  </defs>
  <g>
    <rect class="cls-1" width="481" height="309" rx="68.94"/>
    <path class="cls-2" d="M371.82,338.36,432,303.62,305,230.29V273.6a93.55,93.55,0,0,1,66.82,64.76Z" transform="translate(-109.5 -149.33)"/>
    <g>
      <path class="cls-3" d="M288.57,285a79.48,79.48,0,1,0,72.34,70.13l-72.34,41.77Z" transform="translate(-109.5 -149.33)"/>
      <path d="M374,347.63a95,95,0,0,0-2.15-9.27A93.5,93.5,0,1,0,238.57,447l-35.74,90.58a6.65,6.65,0,0,0,3.79,8.6l6.27,2.43a6.64,6.64,0,0,0,8.59-3.8l35.7-90.47A93.48,93.48,0,0,0,374,347.63Zm-19.09,48.22A79.48,79.48,0,1,1,288.57,285,78.85,78.85,0,0,1,305,288.18c1.91.58,3.81,1.21,5.71,1.94a79.36,79.36,0,0,1,48.51,55.52,78.19,78.19,0,0,1,1.69,9.53A79.14,79.14,0,0,1,354.88,395.85Z" transform="translate(-109.5 -149.33)"/>
      <path class="cls-2" d="M310.71,290.12c-1.9-.73-3.8-1.36-5.71-1.94A78.85,78.85,0,0,0,288.57,285v111.9l72.34-41.77a78.19,78.19,0,0,0-1.69-9.53A79.36,79.36,0,0,0,310.71,290.12Z" transform="translate(-109.5 -149.33)"/>
    </g>
    <ellipse class="cls-4" cx="250.01" cy="320.96" rx="25.84" ry="17.12" transform="translate(-265.91 190.11) rotate(-54.69)"/>
    <ellipse class="cls-4" cx="227.17" cy="360.03" rx="12.27" ry="8.13" transform="translate(-307.43 187.95) rotate(-54.69)"/>
  </g>
</svg>
